<svg width="32" height="32" viewBox="0 0 32 32" fill="none" xmlns="http://www.w3.org/2000/svg">
<circle cx="16" cy="16" r="16" fill="#6DC85B"/>
<g clip-path="url(#clip0_83_27)">
<path d="M16 0.000106891C7.163 0.000106891 0 7.15511 0 15.9701C0 24.8151 7.163 32.0001 16 32.0001C24.837 32.0001 32 24.8151 32 15.9701C32 7.12511 24.838 -0.0318931 16 0.000106891ZM16 0.970107C24.312 0.940107 31.03 7.64811 31.03 15.9701C31.03 24.2921 24.313 31.0301 16 31.0301C7.687 31.0301 0.97 24.2921 0.97 15.9701C0.97 7.68011 7.687 0.970107 16 0.970107ZM13.636 10.7271C13.1774 10.6922 12.7226 10.8331 12.364 11.1211L7.667 14.7581C6.832 15.4411 6.303 16.4281 6.303 17.6061C6.30208 18.3015 6.50234 18.9823 6.87964 19.5664C7.25694 20.1505 7.79517 20.613 8.42941 20.8981C9.06365 21.1832 9.76683 21.2787 10.4541 21.1731C11.1415 21.0676 11.7836 20.7654 12.303 20.3031H12.333C12.371 20.3031 12.424 20.2731 12.424 20.2731C12.424 20.2731 13.769 18.8261 15.818 18.7881C17.868 18.7501 19.485 20.2731 19.485 20.2731C19.523 20.3111 19.56 20.3261 19.636 20.3631C20.282 20.9331 21.119 21.2731 22.03 21.2731C24.042 21.2731 25.697 19.6801 25.697 17.6671C25.697 16.4131 25.047 15.2521 24.061 14.6071C24.023 14.5681 24.038 14.5461 24 14.5461L19.727 11.1521C19.272 10.8101 18.88 10.6891 18.424 10.7271C17.286 10.8031 16.166 11.8911 16.394 13.0301H15.636C15.864 11.9291 14.813 10.8031 13.636 10.7271ZM15.485 13.4851H16.545L18.364 17.1521C18.326 17.3041 18.334 17.4771 18.334 17.6671C18.334 18.2371 18.439 18.7571 18.667 19.2121C17.984 18.7941 16.964 18.3261 15.787 18.3641C14.725 18.3641 13.857 18.7721 13.212 19.1521C13.402 18.6961 13.515 18.1991 13.515 17.6671C13.515 17.5531 13.523 17.4401 13.485 17.3641L15.485 13.4851ZM11.455 14.2731V14.3631H11.425C11.425 14.3261 11.455 14.2731 11.455 14.2731ZM9.909 15.0001C10.2596 14.9987 10.6071 15.0666 10.9313 15.2002C11.2556 15.3337 11.5502 15.5301 11.7981 15.778C12.046 16.026 12.2424 16.3205 12.376 16.6448C12.5095 16.969 12.5775 17.3165 12.576 17.6671C12.576 19.1101 11.389 20.3031 9.909 20.3031C8.467 20.3031 7.242 19.1481 7.242 17.6671C7.204 16.1851 8.429 15.0001 9.909 15.0001ZM22.061 15.0001C23.503 15.0001 24.697 16.1851 24.697 17.6671C24.6925 18.3648 24.4134 19.0327 23.92 19.5261C23.4266 20.0195 22.7587 20.2986 22.061 20.3031C20.581 20.3031 19.394 19.1481 19.394 17.6671C19.356 16.1851 20.542 15.0001 22.06 15.0001H22.061ZM9.909 15.4241C8.695 15.4241 7.697 16.3901 7.697 17.6061C7.69911 18.1921 7.93283 18.7535 8.34721 19.1679C8.76158 19.5823 9.32299 19.816 9.909 19.8181C10.2001 19.8202 10.4887 19.7645 10.758 19.6541C11.0273 19.5437 11.272 19.3808 11.4779 19.175C11.6837 18.9691 11.8465 18.7244 11.957 18.4551C12.0674 18.1858 12.1231 17.8972 12.121 17.6061C12.121 16.4281 11.124 15.4241 9.909 15.4241ZM22.061 15.4241C20.846 15.4241 19.848 16.3901 19.848 17.6061C19.8501 18.1923 20.084 18.7538 20.4986 19.1683C20.9132 19.5827 21.4748 19.8163 22.061 19.8181C23.275 19.8181 24.242 18.8601 24.242 17.6061C24.204 16.4281 23.275 15.4241 22.061 15.4241Z" fill="#184E77"/>
</g>
<defs>
<clipPath id="clip0_83_27">
<rect width="32" height="32" fill="white"/>
</clipPath>
</defs>
</svg>
