<svg width="994" height="454" viewBox="0 0 994 454" fill="none" xmlns="http://www.w3.org/2000/svg">
<g clip-path="url(#clip0_6_9)">
<path d="M227 0.00151651C101.625 0.00151651 0 101.513 0 226.576C0 352.064 101.625 454.002 227 454.002C352.375 454.002 454 352.064 454 226.576C454 101.087 352.389 -0.452484 227 0.00151651ZM227 13.7634C344.926 13.3378 440.238 108.508 440.238 226.576C440.238 344.644 344.941 440.24 227 440.24C109.059 440.24 13.7619 344.644 13.7619 226.576C13.7619 108.962 109.059 13.7634 227 13.7634ZM193.461 152.191C186.954 151.696 180.502 153.694 175.414 157.781L108.776 209.381C96.929 219.071 89.4238 233.074 89.4238 249.787C89.4107 259.652 92.2519 269.311 97.6049 277.598C102.958 285.885 110.594 292.447 119.592 296.492C128.591 300.536 138.567 301.891 148.318 300.394C158.069 298.896 167.179 294.609 174.549 288.05H174.974C175.514 288.05 176.265 287.625 176.265 287.625C176.265 287.625 195.348 267.095 224.418 266.556C253.502 266.017 276.443 287.625 276.443 287.625C276.983 288.164 277.508 288.377 278.586 288.902C287.751 296.988 299.626 301.812 312.551 301.812C341.096 301.812 364.576 279.212 364.576 250.652C364.576 232.861 355.354 216.389 341.365 207.238C340.826 206.685 341.039 206.373 340.5 206.373L279.877 158.221C273.421 153.368 267.86 151.652 261.39 152.191C245.245 153.269 229.355 168.705 232.59 184.865H221.836C225.07 169.244 210.159 153.269 193.461 152.191ZM219.693 191.32H234.732L260.539 243.346C260 245.502 260.114 247.956 260.114 250.652C260.114 258.739 261.603 266.116 264.838 272.572C255.148 266.641 240.677 260.002 223.978 260.541C208.911 260.541 196.596 266.329 187.445 271.721C190.141 265.251 191.744 258.2 191.744 250.652C191.744 249.035 191.858 247.432 191.318 246.353L219.693 191.32ZM162.518 202.5V203.777H162.092C162.092 203.252 162.518 202.5 162.518 202.5ZM140.584 212.814C145.559 212.793 150.488 213.758 155.088 215.652C159.688 217.546 163.868 220.333 167.386 223.851C170.903 227.368 173.69 231.548 175.584 236.148C177.478 240.748 178.443 245.677 178.422 250.652C178.422 271.125 161.581 288.05 140.584 288.05C120.126 288.05 102.746 271.664 102.746 250.652C102.207 229.626 119.586 212.814 140.584 212.814ZM312.99 212.814C333.449 212.814 350.389 229.626 350.389 250.652C350.325 260.551 346.365 270.027 339.365 277.027C332.365 284.027 322.89 287.987 312.99 288.05C291.993 288.05 275.152 271.664 275.152 250.652C274.613 229.626 291.44 212.814 312.976 212.814H312.99ZM140.584 218.83C123.36 218.83 109.201 232.535 109.201 249.787C109.231 258.101 112.547 266.066 118.426 271.945C124.305 277.824 132.27 281.139 140.584 281.169C144.714 281.2 148.808 280.408 152.629 278.842C156.45 277.276 159.922 274.965 162.842 272.045C165.762 269.125 168.073 265.653 169.639 261.832C171.206 258.011 171.997 253.916 171.967 249.787C171.967 233.074 157.822 218.83 140.584 218.83ZM312.99 218.83C295.753 218.83 281.593 232.535 281.593 249.787C281.623 258.103 284.941 266.07 290.823 271.95C296.705 277.829 304.674 281.143 312.99 281.169C330.214 281.169 343.933 267.578 343.933 249.787C343.394 233.074 330.214 218.83 312.99 218.83Z" fill="#184E77"/>
</g>
<path d="M540.858 213.437C531.659 213.437 523.945 212.096 517.717 209.413C511.584 206.73 506.936 203.232 503.774 198.92C500.612 194.608 498.935 190.008 498.743 185.121C498.743 184.354 499.031 183.684 499.606 183.109C500.181 182.438 500.899 182.103 501.762 182.103H517.142C518.387 182.103 519.346 182.39 520.016 182.965C520.687 183.444 521.31 184.067 521.885 184.834C522.556 186.463 523.61 188.044 525.047 189.577C526.58 191.11 528.641 192.404 531.228 193.458C533.815 194.416 537.025 194.895 540.858 194.895C547.087 194.895 551.735 193.889 554.801 191.877C557.963 189.864 559.544 187.133 559.544 183.684C559.544 181.192 558.682 179.18 556.957 177.647C555.328 176.114 552.693 174.724 549.051 173.478C545.506 172.233 540.763 170.891 534.821 169.454C527.635 167.921 521.502 165.956 516.423 163.56C511.44 161.069 507.655 157.907 505.068 154.074C502.576 150.145 501.331 145.306 501.331 139.556C501.331 133.807 502.912 128.728 506.074 124.32C509.236 119.816 513.692 116.319 519.442 113.827C525.191 111.24 532.043 109.946 539.996 109.946C546.416 109.946 552.07 110.809 556.957 112.534C561.94 114.259 566.06 116.51 569.318 119.289C572.672 122.068 575.212 125.039 576.937 128.201C578.661 131.363 579.572 134.43 579.668 137.4C579.668 138.167 579.38 138.886 578.805 139.556C578.23 140.131 577.511 140.419 576.649 140.419H560.55C559.592 140.419 558.73 140.227 557.963 139.844C557.197 139.46 556.574 138.79 556.095 137.831C555.52 135.34 553.795 133.184 550.92 131.363C548.141 129.447 544.5 128.489 539.996 128.489C535.301 128.489 531.563 129.351 528.784 131.076C526.101 132.801 524.76 135.436 524.76 138.981C524.76 141.281 525.431 143.246 526.772 144.875C528.21 146.408 530.557 147.797 533.815 149.043C537.169 150.193 541.577 151.487 547.039 152.924C555.472 154.649 562.323 156.709 567.594 159.105C572.864 161.5 576.745 164.615 579.236 168.448C581.728 172.185 582.973 176.928 582.973 182.678C582.973 189.098 581.153 194.608 577.511 199.207C573.966 203.807 569.031 207.352 562.706 209.844C556.478 212.24 549.195 213.437 540.858 213.437ZM635.918 213.437C624.898 213.437 616.13 210.371 609.614 204.238C603.194 198.105 599.792 189.194 599.409 177.503C599.409 176.736 599.409 175.73 599.409 174.485C599.409 173.143 599.409 172.089 599.409 171.322C599.792 163.944 601.469 157.619 604.44 152.349C607.41 146.983 611.579 142.91 616.945 140.131C622.311 137.257 628.588 135.819 635.775 135.819C643.824 135.819 650.532 137.496 655.898 140.85C661.36 144.108 665.432 148.612 668.115 154.361C670.894 160.015 672.284 166.531 672.284 173.91V177.216C672.284 178.174 671.901 178.988 671.134 179.659C670.463 180.33 669.649 180.665 668.69 180.665H621.688C621.688 180.761 621.688 180.953 621.688 181.24C621.688 181.432 621.688 181.623 621.688 181.815C621.784 184.882 622.359 187.708 623.413 190.296C624.563 192.787 626.144 194.799 628.156 196.333C630.265 197.866 632.756 198.632 635.631 198.632C638.026 198.632 639.991 198.297 641.524 197.626C643.057 196.955 644.303 196.141 645.261 195.183C646.315 194.224 647.082 193.41 647.561 192.739C648.423 191.781 649.094 191.206 649.573 191.014C650.148 190.727 651.011 190.583 652.161 190.583H667.109C668.068 190.583 668.834 190.871 669.409 191.446C670.08 191.925 670.367 192.643 670.272 193.602C670.176 195.135 669.361 197.051 667.828 199.351C666.391 201.555 664.235 203.759 661.36 205.963C658.485 208.071 654.892 209.844 650.579 211.281C646.363 212.719 641.476 213.437 635.918 213.437ZM621.688 167.585H649.861V167.298C649.861 163.848 649.286 160.877 648.136 158.386C647.082 155.799 645.501 153.786 643.393 152.349C641.284 150.912 638.745 150.193 635.775 150.193C632.804 150.193 630.265 150.912 628.156 152.349C626.048 153.786 624.419 155.799 623.269 158.386C622.215 160.877 621.688 163.848 621.688 167.298V167.585ZM725.605 213.437C718.61 213.437 712.429 212.144 707.063 209.556C701.792 206.969 697.624 203.232 694.558 198.345C691.491 193.362 689.814 187.421 689.527 180.521C689.431 178.988 689.383 177.072 689.383 174.772C689.383 172.376 689.431 170.412 689.527 168.879C689.814 161.884 691.443 155.942 694.414 151.055C697.48 146.072 701.696 142.287 707.063 139.7C712.429 137.113 718.61 135.819 725.605 135.819C732.025 135.819 737.487 136.729 741.991 138.55C746.495 140.275 750.184 142.479 753.059 145.162C755.933 147.845 758.042 150.672 759.383 153.643C760.82 156.517 761.587 159.057 761.683 161.261C761.779 162.219 761.443 163.081 760.677 163.848C760.006 164.519 759.191 164.854 758.233 164.854H742.853C741.895 164.854 741.128 164.615 740.554 164.135C740.074 163.56 739.595 162.794 739.116 161.836C737.775 158.482 736.05 156.086 733.942 154.649C731.833 153.211 729.198 152.493 726.036 152.493C721.724 152.493 718.322 153.882 715.831 156.661C713.339 159.44 711.998 163.752 711.806 169.597C711.71 173.335 711.71 176.736 711.806 179.803C712.093 185.744 713.435 190.056 715.831 192.739C718.322 195.422 721.724 196.764 726.036 196.764C729.39 196.764 732.073 196.045 734.085 194.608C736.098 193.17 737.775 190.775 739.116 187.421C739.499 186.463 739.979 185.744 740.554 185.265C741.128 184.69 741.895 184.402 742.853 184.402H758.233C759.191 184.402 760.006 184.786 760.677 185.552C761.443 186.223 761.779 187.038 761.683 187.996C761.587 189.625 761.108 191.541 760.246 193.745C759.479 195.949 758.185 198.201 756.365 200.501C754.64 202.801 752.388 204.957 749.609 206.969C746.83 208.886 743.428 210.467 739.404 211.713C735.475 212.862 730.875 213.437 725.605 213.437ZM784.98 212C784.021 212 783.207 211.665 782.536 210.994C781.865 210.323 781.53 209.461 781.53 208.407V140.85C781.53 139.892 781.865 139.077 782.536 138.406C783.207 137.64 784.021 137.257 784.98 137.257H799.066C800.024 137.257 800.839 137.64 801.509 138.406C802.276 139.077 802.659 139.892 802.659 140.85V146.599C805.055 143.629 807.978 141.329 811.427 139.7C814.973 138.071 819.045 137.257 823.645 137.257H829.826C830.784 137.257 831.598 137.592 832.269 138.263C832.94 138.933 833.275 139.796 833.275 140.85V153.211C833.275 154.265 832.94 155.128 832.269 155.799C831.598 156.469 830.784 156.805 829.826 156.805H817.177C812.961 156.805 809.655 158.003 807.259 160.398C804.863 162.698 803.665 166.004 803.665 170.316V208.407C803.665 209.461 803.33 210.323 802.659 210.994C801.989 211.665 801.126 212 800.072 212H784.98ZM882.248 213.437C871.228 213.437 862.46 210.371 855.944 204.238C849.524 198.105 846.122 189.194 845.739 177.503C845.739 176.736 845.739 175.73 845.739 174.485C845.739 173.143 845.739 172.089 845.739 171.322C846.122 163.944 847.799 157.619 850.77 152.349C853.74 146.983 857.909 142.91 863.275 140.131C868.641 137.257 874.918 135.819 882.105 135.819C890.154 135.819 896.862 137.496 902.228 140.85C907.69 144.108 911.762 148.612 914.446 154.361C917.224 160.015 918.614 166.531 918.614 173.91V177.216C918.614 178.174 918.231 178.988 917.464 179.659C916.793 180.33 915.979 180.665 915.02 180.665H868.018C868.018 180.761 868.018 180.953 868.018 181.24C868.018 181.432 868.018 181.623 868.018 181.815C868.114 184.882 868.689 187.708 869.743 190.296C870.893 192.787 872.474 194.799 874.486 196.333C876.595 197.866 879.086 198.632 881.961 198.632C884.356 198.632 886.321 198.297 887.854 197.626C889.387 196.955 890.633 196.141 891.591 195.183C892.645 194.224 893.412 193.41 893.891 192.739C894.753 191.781 895.424 191.206 895.903 191.014C896.478 190.727 897.341 190.583 898.491 190.583H913.439C914.398 190.583 915.164 190.871 915.739 191.446C916.41 191.925 916.697 192.643 916.602 193.602C916.506 195.135 915.691 197.051 914.158 199.351C912.721 201.555 910.565 203.759 907.69 205.963C904.815 208.071 901.222 209.844 896.91 211.281C892.693 212.719 887.806 213.437 882.248 213.437ZM868.018 167.585H896.191V167.298C896.191 163.848 895.616 160.877 894.466 158.386C893.412 155.799 891.831 153.786 889.723 152.349C887.615 150.912 885.075 150.193 882.105 150.193C879.134 150.193 876.595 150.912 874.486 152.349C872.378 153.786 870.749 155.799 869.599 158.386C868.545 160.877 868.018 163.848 868.018 167.298V167.585ZM974.385 212C968.444 212 963.365 211.042 959.149 209.125C954.933 207.113 951.723 204.047 949.519 199.926C947.41 195.806 946.356 190.631 946.356 184.402V154.218H935.145C934.091 154.218 933.228 153.882 932.558 153.211C931.887 152.541 931.551 151.678 931.551 150.624V140.85C931.551 139.796 931.887 138.933 932.558 138.263C933.228 137.592 934.091 137.257 935.145 137.257H946.356V113.54C946.356 112.486 946.692 111.623 947.362 110.953C948.129 110.282 948.991 109.946 949.95 109.946H964.036C965.09 109.946 965.953 110.282 966.623 110.953C967.294 111.623 967.629 112.486 967.629 113.54V137.257H985.597C986.555 137.257 987.369 137.592 988.04 138.263C988.711 138.933 989.046 139.796 989.046 140.85V150.624C989.046 151.678 988.711 152.541 988.04 153.211C987.369 153.882 986.555 154.218 985.597 154.218H967.629V182.678C967.629 186.319 968.252 189.194 969.498 191.302C970.84 193.314 973.139 194.32 976.397 194.32H986.89C987.849 194.32 988.663 194.656 989.334 195.326C990.005 195.997 990.34 196.812 990.34 197.77V208.407C990.34 209.461 990.005 210.323 989.334 210.994C988.663 211.665 987.849 212 986.89 212H974.385Z" fill="#184E77"/>
<path d="M540.858 342.437C531.659 342.437 523.945 341.096 517.717 338.413C511.584 335.73 506.936 332.232 503.774 327.92C500.612 323.608 498.935 319.008 498.743 314.121C498.743 313.354 499.031 312.684 499.606 312.109C500.181 311.438 500.899 311.103 501.762 311.103H517.142C518.387 311.103 519.346 311.39 520.016 311.965C520.687 312.444 521.31 313.067 521.885 313.834C522.556 315.463 523.61 317.044 525.047 318.577C526.58 320.11 528.641 321.404 531.228 322.458C533.815 323.416 537.025 323.895 540.858 323.895C547.087 323.895 551.735 322.889 554.801 320.877C557.963 318.864 559.544 316.133 559.544 312.684C559.544 310.192 558.682 308.18 556.957 306.647C555.328 305.114 552.693 303.724 549.051 302.478C545.506 301.233 540.763 299.891 534.821 298.454C527.635 296.921 521.502 294.956 516.423 292.56C511.44 290.069 507.655 286.907 505.068 283.074C502.576 279.145 501.331 274.306 501.331 268.556C501.331 262.807 502.912 257.728 506.074 253.32C509.236 248.816 513.692 245.319 519.442 242.827C525.191 240.24 532.043 238.946 539.996 238.946C546.416 238.946 552.07 239.809 556.957 241.534C561.94 243.259 566.06 245.51 569.318 248.289C572.672 251.068 575.212 254.039 576.937 257.201C578.661 260.363 579.572 263.43 579.668 266.4C579.668 267.167 579.38 267.886 578.805 268.556C578.23 269.131 577.511 269.419 576.649 269.419H560.55C559.592 269.419 558.73 269.227 557.963 268.844C557.197 268.46 556.574 267.79 556.095 266.831C555.52 264.34 553.795 262.184 550.92 260.363C548.141 258.447 544.5 257.489 539.996 257.489C535.301 257.489 531.563 258.351 528.784 260.076C526.101 261.801 524.76 264.436 524.76 267.981C524.76 270.281 525.431 272.246 526.772 273.875C528.21 275.408 530.557 276.797 533.815 278.043C537.169 279.193 541.577 280.487 547.039 281.924C555.472 283.649 562.323 285.709 567.594 288.105C572.864 290.5 576.745 293.615 579.236 297.448C581.728 301.185 582.973 305.928 582.973 311.678C582.973 318.098 581.153 323.608 577.511 328.207C573.966 332.807 569.031 336.352 562.706 338.844C556.478 341.24 549.195 342.437 540.858 342.437ZM606.165 368.31C605.111 368.31 604.248 367.975 603.577 367.304C602.907 366.633 602.571 365.771 602.571 364.717V269.85C602.571 268.796 602.907 267.933 603.577 267.263C604.248 266.592 605.111 266.257 606.165 266.257H619.82C620.874 266.257 621.736 266.592 622.407 267.263C623.078 267.933 623.413 268.796 623.413 269.85V275.312C625.713 272.246 628.683 269.754 632.325 267.838C635.966 265.825 640.518 264.819 645.98 264.819C650.963 264.819 655.275 265.634 658.916 267.263C662.653 268.796 665.768 271.048 668.259 274.018C670.846 276.893 672.811 280.391 674.152 284.511C675.59 288.632 676.404 293.279 676.596 298.454C676.692 300.274 676.74 301.999 676.74 303.628C676.74 305.257 676.692 307.03 676.596 308.947C676.5 313.834 675.734 318.337 674.296 322.458C672.955 326.578 670.99 330.124 668.403 333.094C665.816 336.065 662.653 338.365 658.916 339.994C655.275 341.623 650.963 342.437 645.98 342.437C641.093 342.437 636.829 341.575 633.187 339.85C629.642 338.029 626.719 335.586 624.419 332.519V364.717C624.419 365.771 624.084 366.633 623.413 367.304C622.742 367.975 621.928 368.31 620.97 368.31H606.165ZM639.512 325.189C643.153 325.189 646.028 324.422 648.136 322.889C650.244 321.26 651.729 319.152 652.592 316.565C653.55 313.977 654.125 311.151 654.317 308.084C654.508 305.114 654.508 302.143 654.317 299.172C654.125 296.106 653.55 293.279 652.592 290.692C651.729 288.105 650.244 286.044 648.136 284.511C646.028 282.882 643.153 282.068 639.512 282.068C635.966 282.068 633.091 282.882 630.887 284.511C628.683 286.14 627.102 288.2 626.144 290.692C625.186 293.183 624.611 295.866 624.419 298.741C624.323 300.466 624.276 302.239 624.276 304.059C624.276 305.88 624.323 307.701 624.419 309.521C624.515 312.205 625.09 314.744 626.144 317.14C627.294 319.439 628.923 321.356 631.031 322.889C633.235 324.422 636.062 325.189 639.512 325.189ZM731.945 342.437C723.992 342.437 717.332 341.144 711.965 338.556C706.599 335.873 702.479 332.088 699.604 327.201C696.825 322.314 695.292 316.613 695.004 310.096C694.909 308.18 694.861 306.024 694.861 303.628C694.861 301.137 694.909 298.981 695.004 297.16C695.292 290.548 696.921 284.847 699.892 280.055C702.862 275.168 707.03 271.431 712.397 268.844C717.763 266.161 724.279 264.819 731.945 264.819C739.515 264.819 745.983 266.161 751.35 268.844C756.716 271.431 760.884 275.168 763.855 280.055C766.825 284.847 768.454 290.548 768.742 297.16C768.933 298.981 769.029 301.137 769.029 303.628C769.029 306.024 768.933 308.18 768.742 310.096C768.454 316.613 766.873 322.314 763.998 327.201C761.22 332.088 757.147 335.873 751.781 338.556C746.415 341.144 739.803 342.437 731.945 342.437ZM731.945 326.626C736.64 326.626 740.186 325.189 742.582 322.314C744.977 319.344 746.271 315.031 746.462 309.378C746.558 307.94 746.606 306.024 746.606 303.628C746.606 301.233 746.558 299.316 746.462 297.879C746.271 292.321 744.977 288.057 742.582 285.086C740.186 282.116 736.64 280.63 731.945 280.63C727.25 280.63 723.656 282.116 721.165 285.086C718.769 288.057 717.475 292.321 717.284 297.879C717.188 299.316 717.14 301.233 717.14 303.628C717.14 306.024 717.188 307.94 717.284 309.378C717.475 315.031 718.769 319.344 721.165 322.314C723.656 325.189 727.25 326.626 731.945 326.626ZM825.325 341C819.384 341 814.305 340.042 810.089 338.125C805.872 336.113 802.662 333.047 800.458 328.926C798.35 324.806 797.296 319.631 797.296 313.402V283.218H786.085C785.031 283.218 784.168 282.882 783.497 282.211C782.827 281.541 782.491 280.678 782.491 279.624V269.85C782.491 268.796 782.827 267.933 783.497 267.263C784.168 266.592 785.031 266.257 786.085 266.257H797.296V242.54C797.296 241.486 797.631 240.623 798.302 239.953C799.069 239.282 799.931 238.946 800.89 238.946H814.976C816.03 238.946 816.892 239.282 817.563 239.953C818.234 240.623 818.569 241.486 818.569 242.54V266.257H836.536C837.495 266.257 838.309 266.592 838.98 267.263C839.651 267.933 839.986 268.796 839.986 269.85V279.624C839.986 280.678 839.651 281.541 838.98 282.211C838.309 282.882 837.495 283.218 836.536 283.218H818.569V311.678C818.569 315.319 819.192 318.194 820.438 320.302C821.779 322.314 824.079 323.32 827.337 323.32H837.83C838.788 323.32 839.603 323.656 840.274 324.326C840.944 324.997 841.28 325.812 841.28 326.77V337.407C841.28 338.461 840.944 339.323 840.274 339.994C839.603 340.665 838.788 341 837.83 341H825.325ZM889.035 342.437C883.094 342.437 877.968 341.767 873.655 340.425C869.439 338.988 865.989 337.263 863.306 335.251C860.719 333.238 858.755 331.226 857.413 329.214C856.167 327.105 855.497 325.333 855.401 323.895C855.305 322.841 855.64 321.979 856.407 321.308C857.174 320.637 857.94 320.302 858.707 320.302H872.649C872.937 320.302 873.224 320.35 873.512 320.446C873.799 320.541 874.087 320.781 874.374 321.164C875.62 322.027 876.914 323.033 878.255 324.183C879.597 325.237 881.13 326.147 882.855 326.914C884.675 327.68 886.927 328.064 889.61 328.064C892.773 328.064 895.456 327.441 897.66 326.195C899.864 324.853 900.966 322.985 900.966 320.589C900.966 318.864 900.439 317.427 899.384 316.277C898.426 315.127 896.558 314.073 893.779 313.115C891 312.157 886.879 311.103 881.417 309.953C876.243 308.803 871.835 307.27 868.193 305.353C864.552 303.437 861.821 301.041 860 298.166C858.18 295.196 857.269 291.65 857.269 287.53C857.269 283.792 858.419 280.199 860.719 276.749C863.115 273.3 866.612 270.473 871.212 268.269C875.812 265.969 881.561 264.819 888.46 264.819C893.731 264.819 898.33 265.49 902.259 266.831C906.284 268.077 909.638 269.706 912.321 271.719C915.004 273.635 917.016 275.647 918.358 277.756C919.795 279.768 920.562 281.541 920.658 283.074C920.753 284.032 920.466 284.847 919.795 285.517C919.124 286.188 918.358 286.524 917.495 286.524H904.703C904.224 286.524 903.792 286.476 903.409 286.38C903.026 286.188 902.69 285.949 902.403 285.661C901.253 284.894 900.055 284.032 898.81 283.074C897.66 282.02 896.27 281.109 894.641 280.343C893.012 279.576 890.904 279.193 888.317 279.193C885.154 279.193 882.711 279.912 880.986 281.349C879.357 282.691 878.543 284.415 878.543 286.524C878.543 287.865 878.974 289.111 879.836 290.261C880.699 291.411 882.471 292.465 885.154 293.423C887.838 294.381 891.91 295.387 897.372 296.441C903.888 297.591 909.063 299.316 912.896 301.616C916.729 303.916 919.46 306.599 921.089 309.665C922.814 312.636 923.676 315.846 923.676 319.296C923.676 323.799 922.335 327.824 919.651 331.37C916.968 334.819 913.04 337.55 907.865 339.563C902.786 341.479 896.51 342.437 889.035 342.437Z" fill="#168AAD"/>
<defs>
<clipPath id="clip0_6_9">
<rect width="454" height="454" fill="white"/>
</clipPath>
</defs>
</svg>
