<svg width="129" height="59" viewBox="0 0 129 59" fill="none" xmlns="http://www.w3.org/2000/svg">
<g clip-path="url(#clip0_32_30)">
<path d="M29.3043 0.000195772C13.1192 0.000195772 0 13.1047 0 29.2496C0 45.4494 13.1192 58.6089 29.3043 58.6089C45.4895 58.6089 58.6087 45.4494 58.6087 29.2496C58.6087 13.0498 45.4913 -0.0584129 29.3043 0.000195772ZM29.3043 1.77677C44.5279 1.72183 56.8321 14.0077 56.8321 29.2496C56.8321 44.4915 44.5298 56.8323 29.3043 56.8323C14.0789 56.8323 1.77658 44.4915 1.77658 29.2496C1.77658 14.0663 14.0789 1.77677 29.3043 1.77677ZM24.9746 19.6469C24.1346 19.5831 23.3018 19.841 22.6449 20.3685L14.0423 27.0298C12.513 28.2807 11.5441 30.0884 11.5441 32.246C11.5424 33.5196 11.9092 34.7664 12.6002 35.8363C13.2912 36.9061 14.277 37.7531 15.4386 38.2753C16.6003 38.7974 17.8882 38.9724 19.147 38.779C20.4058 38.5857 21.5818 38.0323 22.5332 37.1856H22.5882C22.6578 37.1856 22.7548 37.1306 22.7548 37.1306C22.7548 37.1306 25.2182 34.4804 28.971 34.4108C32.7256 34.3412 35.6872 37.1306 35.6872 37.1306C35.7568 37.2002 35.8246 37.2277 35.9638 37.2955C37.1469 38.3394 38.6799 38.9622 40.3484 38.9622C44.0334 38.9622 47.0646 36.0445 47.0646 32.3577C47.0646 30.061 45.8741 27.9346 44.0682 26.7532C43.9986 26.6818 44.0261 26.6415 43.9565 26.6415L36.1304 20.4253C35.2971 19.7989 34.5791 19.5773 33.7439 19.6469C31.6597 19.7861 29.6084 21.7788 30.026 23.8649H28.6377C29.0553 21.8484 27.1303 19.7861 24.9746 19.6469ZM28.3611 24.6983H30.3025L33.6341 31.4145C33.5645 31.6928 33.5791 32.0097 33.5791 32.3577C33.5791 33.4017 33.7714 34.354 34.189 35.1874C32.9381 34.4218 31.0699 33.5647 28.9142 33.6343C26.9692 33.6343 25.3794 34.3815 24.1981 35.0775C24.546 34.2423 24.753 33.3321 24.753 32.3577C24.753 32.1489 24.7677 31.9419 24.6981 31.8027L28.3611 24.6983ZM20.9801 26.1415V26.3063H20.9251C20.9251 26.2386 20.9801 26.1415 20.9801 26.1415ZM18.1485 27.473C18.7908 27.4704 19.4271 27.5949 20.021 27.8394C20.6148 28.0839 21.1544 28.4436 21.6085 28.8978C22.0626 29.3519 22.4223 29.8914 22.6668 30.4853C22.9114 31.0791 23.0359 31.7155 23.0332 32.3577C23.0332 35.0006 20.8592 37.1856 18.1485 37.1856C15.5075 37.1856 13.2639 35.0702 13.2639 32.3577C13.1943 29.6434 15.4379 27.473 18.1485 27.473ZM40.4052 27.473C43.0462 27.473 45.2331 29.6434 45.2331 32.3577C45.2249 33.6356 44.7136 34.8589 43.81 35.7625C42.9064 36.6661 41.6831 37.1774 40.4052 37.1856C37.6945 37.1856 35.5205 35.0702 35.5205 32.3577C35.4509 29.6434 37.6231 27.473 40.4034 27.473H40.4052ZM18.1485 28.2496C15.9251 28.2496 14.0972 30.0188 14.0972 32.246C14.1011 33.3193 14.5292 34.3475 15.2881 35.1064C16.047 35.8654 17.0753 36.2934 18.1485 36.2973C18.6817 36.3012 19.2102 36.1991 19.7035 35.9968C20.1968 35.7946 20.645 35.4964 21.022 35.1194C21.3989 34.7424 21.6972 34.2942 21.8994 33.8009C22.1016 33.3076 22.2038 32.7791 22.1999 32.246C22.1999 30.0884 20.3738 28.2496 18.1485 28.2496ZM40.4052 28.2496C38.1799 28.2496 36.352 30.0188 36.352 32.246C36.3559 33.3196 36.7842 34.3481 37.5436 35.1071C38.3029 35.866 39.3316 36.2939 40.4052 36.2973C42.6287 36.2973 44.3997 34.5427 44.3997 32.246C44.3301 30.0884 42.6287 28.2496 40.4052 28.2496Z" fill="#BBC8D4"/>
</g>
<path d="M69.8216 27.8367C68.634 27.8367 67.6382 27.6635 66.8341 27.3171C66.0424 26.9707 65.4425 26.5192 65.0342 25.9626C64.626 25.4059 64.4095 24.8121 64.3848 24.1812C64.3848 24.0823 64.4219 23.9957 64.4961 23.9214C64.5704 23.8348 64.6631 23.7915 64.7745 23.7915H66.7599C66.9207 23.7915 67.0444 23.8287 67.131 23.9029C67.2176 23.9647 67.298 24.0451 67.3723 24.1441C67.4588 24.3544 67.5949 24.5585 67.7805 24.7564C67.9784 24.9544 68.2444 25.1214 68.5784 25.2574C68.9124 25.3811 69.3268 25.443 69.8216 25.443C70.6257 25.443 71.2256 25.3131 71.6215 25.0533C72.0297 24.7936 72.2338 24.441 72.2338 23.9957C72.2338 23.674 72.1225 23.4143 71.8998 23.2163C71.6895 23.0184 71.3493 22.839 70.8793 22.6782C70.4216 22.5174 69.8092 22.3442 69.0423 22.1587C68.1145 21.9607 67.3228 21.7071 66.6671 21.3979C66.0239 21.0762 65.5352 20.668 65.2012 20.1732C64.8796 19.666 64.7188 19.0413 64.7188 18.2991C64.7188 17.5569 64.9229 16.9012 65.3311 16.3322C65.7394 15.7508 66.3146 15.2992 67.0568 14.9776C67.799 14.6436 68.6835 14.4766 69.7103 14.4766C70.5391 14.4766 71.2689 14.5879 71.8998 14.8106C72.5431 15.0333 73.075 15.324 73.4956 15.6827C73.9286 16.0415 74.2564 16.425 74.4791 16.8332C74.7017 17.2414 74.8193 17.6373 74.8316 18.0207C74.8316 18.1197 74.7945 18.2125 74.7203 18.2991C74.6461 18.3733 74.5533 18.4104 74.442 18.4104H72.3637C72.24 18.4104 72.1287 18.3857 72.0297 18.3362C71.9308 18.2867 71.8504 18.2001 71.7885 18.0764C71.7143 17.7548 71.4916 17.4764 71.1205 17.2414C70.7618 16.994 70.2917 16.8703 69.7103 16.8703C69.1041 16.8703 68.6217 16.9816 68.2629 17.2043C67.9166 17.427 67.7434 17.7671 67.7434 18.2249C67.7434 18.5217 67.83 18.7753 68.0031 18.9856C68.1887 19.1836 68.4918 19.3629 68.9124 19.5238C69.3453 19.6722 69.9144 19.8392 70.6195 20.0248C71.7081 20.2474 72.5926 20.5134 73.273 20.8226C73.9533 21.1319 74.4543 21.5339 74.776 22.0288C75.0976 22.5112 75.2584 23.1235 75.2584 23.8658C75.2584 24.6946 75.0234 25.4059 74.5533 25.9997C74.0956 26.5935 73.4585 27.0512 72.6421 27.3728C71.838 27.682 70.8978 27.8367 69.8216 27.8367ZM82.0933 27.8367C80.6707 27.8367 79.5388 27.4408 78.6976 26.6491C77.8688 25.8574 77.4296 24.707 77.3801 23.1978C77.3801 23.0988 77.3801 22.9689 77.3801 22.8081C77.3801 22.6349 77.3801 22.4988 77.3801 22.3999C77.4296 21.4474 77.6461 20.6309 78.0296 19.9505C78.4131 19.2578 78.9512 18.732 79.6439 18.3733C80.3367 18.0022 81.1469 17.8166 82.0747 17.8166C83.1138 17.8166 83.9798 18.0331 84.6725 18.4661C85.3776 18.8867 85.9034 19.4681 86.2497 20.2103C86.6085 20.9402 86.7878 21.7814 86.7878 22.7339V23.1607C86.7878 23.2844 86.7384 23.3895 86.6394 23.4761C86.5528 23.5627 86.4477 23.606 86.3239 23.606H80.2563C80.2563 23.6184 80.2563 23.6431 80.2563 23.6802C80.2563 23.705 80.2563 23.7297 80.2563 23.7544C80.2686 24.1503 80.3428 24.5152 80.4789 24.8492C80.6274 25.1709 80.8315 25.4306 81.0913 25.6286C81.3634 25.8265 81.685 25.9254 82.0561 25.9254C82.3654 25.9254 82.619 25.8822 82.8169 25.7956C83.0149 25.709 83.1757 25.6038 83.2994 25.4801C83.4355 25.3564 83.5344 25.2513 83.5963 25.1647C83.7076 25.041 83.7942 24.9667 83.856 24.942C83.9303 24.9049 84.0416 24.8863 84.19 24.8863H86.1198C86.2435 24.8863 86.3425 24.9234 86.4167 24.9977C86.5033 25.0595 86.5404 25.1523 86.5281 25.276C86.5157 25.4739 86.4105 25.7213 86.2126 26.0182C86.0271 26.3027 85.7487 26.5873 85.3776 26.8718C85.0065 27.1439 84.5426 27.3728 83.9859 27.5583C83.4416 27.7439 82.8107 27.8367 82.0933 27.8367ZM80.2563 21.9174H83.8932V21.8803C83.8932 21.435 83.8189 21.0515 83.6705 20.7299C83.5344 20.3959 83.3303 20.1361 83.0582 19.9505C82.786 19.765 82.4582 19.6722 82.0747 19.6722C81.6912 19.6722 81.3634 19.765 81.0913 19.9505C80.8191 20.1361 80.6088 20.3959 80.4604 20.7299C80.3243 21.0515 80.2563 21.435 80.2563 21.8803V21.9174ZM93.6713 27.8367C92.7682 27.8367 91.9703 27.6697 91.2776 27.3357C90.5972 27.0017 90.0591 26.5192 89.6632 25.8883C89.2674 25.2451 89.0509 24.4781 89.0138 23.5874C89.0014 23.3895 88.9952 23.1421 88.9952 22.8452C88.9952 22.536 89.0014 22.2824 89.0138 22.0844C89.0509 21.1814 89.2612 20.4144 89.6447 19.7835C90.0405 19.1403 90.5848 18.6516 91.2776 18.3176C91.9703 17.9836 92.7682 17.8166 93.6713 17.8166C94.5001 17.8166 95.2052 17.9341 95.7866 18.1692C96.368 18.3919 96.8443 18.6764 97.2154 19.0227C97.5865 19.3691 97.8586 19.734 98.0318 20.1175C98.2174 20.4886 98.3164 20.8165 98.3287 21.101C98.3411 21.2247 98.2978 21.336 98.1988 21.435C98.1122 21.5216 98.0071 21.5649 97.8834 21.5649H95.8979C95.7742 21.5649 95.6753 21.5339 95.601 21.4721C95.5392 21.3979 95.4773 21.2989 95.4155 21.1752C95.2423 20.7422 95.0196 20.433 94.7475 20.2474C94.4753 20.0619 94.1351 19.9691 93.7269 19.9691C93.1703 19.9691 92.7311 20.1485 92.4095 20.5072C92.0878 20.8659 91.9147 21.4226 91.8899 22.1772C91.8775 22.6597 91.8775 23.0988 91.8899 23.4947C91.927 24.2616 92.1002 24.8183 92.4095 25.1647C92.7311 25.511 93.1703 25.6842 93.7269 25.6842C94.1599 25.6842 94.5063 25.5914 94.766 25.4059C95.0258 25.2203 95.2423 24.9111 95.4155 24.4781C95.465 24.3544 95.5268 24.2616 95.601 24.1998C95.6753 24.1256 95.7742 24.0884 95.8979 24.0884H97.8834C98.0071 24.0884 98.1122 24.1379 98.1988 24.2369C98.2978 24.3235 98.3411 24.4286 98.3287 24.5523C98.3164 24.7626 98.2545 25.01 98.1432 25.2946C98.0442 25.5791 97.8772 25.8698 97.6422 26.1667C97.4195 26.4636 97.1288 26.7419 96.7701 27.0017C96.4113 27.2491 95.9722 27.4532 95.4526 27.614C94.9454 27.7625 94.3516 27.8367 93.6713 27.8367ZM101.336 27.6511C101.212 27.6511 101.107 27.6078 101.021 27.5212C100.934 27.4346 100.891 27.3233 100.891 27.1872V18.4661C100.891 18.3424 100.934 18.2372 101.021 18.1506C101.107 18.0517 101.212 18.0022 101.336 18.0022H103.155C103.278 18.0022 103.383 18.0517 103.47 18.1506C103.569 18.2372 103.619 18.3424 103.619 18.4661V19.2083C103.928 18.8248 104.305 18.5279 104.75 18.3176C105.208 18.1073 105.734 18.0022 106.328 18.0022H107.126C107.249 18.0022 107.354 18.0455 107.441 18.1321C107.528 18.2187 107.571 18.33 107.571 18.4661V20.0619C107.571 20.1979 107.528 20.3093 107.441 20.3959C107.354 20.4825 107.249 20.5258 107.126 20.5258H105.493C104.948 20.5258 104.522 20.6804 104.212 20.9896C103.903 21.2865 103.748 21.7133 103.748 22.27V27.1872C103.748 27.3233 103.705 27.4346 103.619 27.5212C103.532 27.6078 103.421 27.6511 103.285 27.6511H101.336ZM113.893 27.8367C112.47 27.8367 111.339 27.4408 110.497 26.6491C109.668 25.8574 109.229 24.707 109.18 23.1978C109.18 23.0988 109.18 22.9689 109.18 22.8081C109.18 22.6349 109.18 22.4988 109.18 22.3999C109.229 21.4474 109.446 20.6309 109.829 19.9505C110.213 19.2578 110.751 18.732 111.444 18.3733C112.136 18.0022 112.947 17.8166 113.874 17.8166C114.914 17.8166 115.779 18.0331 116.472 18.4661C117.177 18.8867 117.703 19.4681 118.049 20.2103C118.408 20.9402 118.588 21.7814 118.588 22.7339V23.1607C118.588 23.2844 118.538 23.3895 118.439 23.4761C118.353 23.5627 118.247 23.606 118.124 23.606H112.056C112.056 23.6184 112.056 23.6431 112.056 23.6802C112.056 23.705 112.056 23.7297 112.056 23.7544C112.068 24.1503 112.143 24.5152 112.279 24.8492C112.427 25.1709 112.631 25.4306 112.891 25.6286C113.163 25.8265 113.485 25.9254 113.856 25.9254C114.165 25.9254 114.419 25.8822 114.617 25.7956C114.815 25.709 114.975 25.6038 115.099 25.4801C115.235 25.3564 115.334 25.2513 115.396 25.1647C115.507 25.041 115.594 24.9667 115.656 24.942C115.73 24.9049 115.841 24.8863 115.99 24.8863H117.92C118.043 24.8863 118.142 24.9234 118.216 24.9977C118.303 25.0595 118.34 25.1523 118.328 25.276C118.315 25.4739 118.21 25.7213 118.012 26.0182C117.827 26.3027 117.548 26.5873 117.177 26.8718C116.806 27.1439 116.342 27.3728 115.786 27.5583C115.241 27.7439 114.61 27.8367 113.893 27.8367ZM112.056 21.9174H115.693V21.8803C115.693 21.435 115.619 21.0515 115.47 20.7299C115.334 20.3959 115.13 20.1361 114.858 19.9505C114.586 19.765 114.258 19.6722 113.874 19.6722C113.491 19.6722 113.163 19.765 112.891 19.9505C112.619 20.1361 112.409 20.3959 112.26 20.7299C112.124 21.0515 112.056 21.435 112.056 21.8803V21.9174ZM125.787 27.6511C125.02 27.6511 124.365 27.5274 123.82 27.28C123.276 27.0202 122.862 26.6244 122.577 26.0924C122.305 25.5605 122.169 24.8925 122.169 24.0884V20.1918H120.722C120.586 20.1918 120.474 20.1485 120.388 20.0619C120.301 19.9753 120.258 19.8639 120.258 19.7279V18.4661C120.258 18.33 120.301 18.2187 120.388 18.1321C120.474 18.0455 120.586 18.0022 120.722 18.0022H122.169V14.9405C122.169 14.8044 122.212 14.6931 122.299 14.6065C122.398 14.5199 122.509 14.4766 122.633 14.4766H124.451C124.587 14.4766 124.699 14.5199 124.785 14.6065C124.872 14.6931 124.915 14.8044 124.915 14.9405V18.0022H127.235C127.358 18.0022 127.464 18.0455 127.55 18.1321C127.637 18.2187 127.68 18.33 127.68 18.4661V19.7279C127.68 19.8639 127.637 19.9753 127.55 20.0619C127.464 20.1485 127.358 20.1918 127.235 20.1918H124.915V23.8658C124.915 24.3358 124.996 24.707 125.156 24.9791C125.33 25.2389 125.626 25.3688 126.047 25.3688H127.402C127.525 25.3688 127.631 25.4121 127.717 25.4987C127.804 25.5853 127.847 25.6904 127.847 25.8141V27.1872C127.847 27.3233 127.804 27.4346 127.717 27.5212C127.631 27.6078 127.525 27.6511 127.402 27.6511H125.787ZM69.8216 44.8367C68.634 44.8367 67.6382 44.6635 66.8341 44.3171C66.0424 43.9707 65.4425 43.5192 65.0342 42.9626C64.626 42.4059 64.4095 41.8121 64.3848 41.1812C64.3848 41.0823 64.4219 40.9957 64.4961 40.9214C64.5704 40.8348 64.6631 40.7915 64.7745 40.7915H66.7599C66.9207 40.7915 67.0444 40.8287 67.131 40.9029C67.2176 40.9647 67.298 41.0451 67.3723 41.1441C67.4588 41.3544 67.5949 41.5585 67.7805 41.7564C67.9784 41.9544 68.2444 42.1214 68.5784 42.2574C68.9124 42.3811 69.3268 42.443 69.8216 42.443C70.6257 42.443 71.2256 42.3131 71.6215 42.0533C72.0297 41.7936 72.2338 41.441 72.2338 40.9957C72.2338 40.674 72.1225 40.4143 71.8998 40.2163C71.6895 40.0184 71.3493 39.839 70.8793 39.6782C70.4216 39.5174 69.8092 39.3442 69.0423 39.1587C68.1145 38.9607 67.3228 38.7071 66.6671 38.3979C66.0239 38.0762 65.5352 37.668 65.2012 37.1732C64.8796 36.666 64.7188 36.0413 64.7188 35.2991C64.7188 34.5569 64.9229 33.9012 65.3311 33.3322C65.7394 32.7508 66.3146 32.2992 67.0568 31.9776C67.799 31.6436 68.6835 31.4766 69.7103 31.4766C70.5391 31.4766 71.2689 31.5879 71.8998 31.8106C72.5431 32.0333 73.075 32.324 73.4956 32.6827C73.9286 33.0415 74.2564 33.425 74.4791 33.8332C74.7017 34.2414 74.8193 34.6373 74.8316 35.0207C74.8316 35.1197 74.7945 35.2125 74.7203 35.2991C74.6461 35.3733 74.5533 35.4104 74.442 35.4104H72.3637C72.24 35.4104 72.1287 35.3857 72.0297 35.3362C71.9308 35.2867 71.8504 35.2001 71.7885 35.0764C71.7143 34.7548 71.4916 34.4764 71.1205 34.2414C70.7618 33.994 70.2917 33.8703 69.7103 33.8703C69.1041 33.8703 68.6217 33.9816 68.2629 34.2043C67.9166 34.427 67.7434 34.7671 67.7434 35.2249C67.7434 35.5217 67.83 35.7753 68.0031 35.9856C68.1887 36.1836 68.4918 36.3629 68.9124 36.5238C69.3453 36.6722 69.9144 36.8392 70.6195 37.0248C71.7081 37.2474 72.5926 37.5134 73.273 37.8226C73.9533 38.1319 74.4543 38.5339 74.776 39.0288C75.0976 39.5112 75.2584 40.1235 75.2584 40.8658C75.2584 41.6946 75.0234 42.4059 74.5533 42.9997C74.0956 43.5935 73.4585 44.0512 72.6421 44.3728C71.838 44.682 70.8978 44.8367 69.8216 44.8367ZM78.2522 48.1767C78.1162 48.1767 78.0048 48.1334 77.9182 48.0468C77.8316 47.9602 77.7884 47.8489 77.7884 47.7128V35.4661C77.7884 35.33 77.8316 35.2187 77.9182 35.1321C78.0048 35.0455 78.1162 35.0022 78.2522 35.0022H80.015C80.1511 35.0022 80.2624 35.0455 80.349 35.1321C80.4356 35.2187 80.4789 35.33 80.4789 35.4661V36.1712C80.7758 35.7753 81.1593 35.4537 81.6294 35.2063C82.0994 34.9465 82.687 34.8166 83.3922 34.8166C84.0354 34.8166 84.5921 34.9218 85.0622 35.1321C85.5446 35.33 85.9467 35.6207 86.2683 36.0042C86.6023 36.3753 86.8559 36.8268 87.0291 37.3588C87.2146 37.8907 87.3198 38.4906 87.3445 39.1587C87.3569 39.3937 87.3631 39.6164 87.3631 39.8267C87.3631 40.037 87.3569 40.2658 87.3445 40.5132C87.3321 41.1441 87.2332 41.7255 87.0476 42.2574C86.8744 42.7894 86.6208 43.2471 86.2868 43.6306C85.9528 44.014 85.5446 44.3109 85.0622 44.5212C84.5921 44.7315 84.0354 44.8367 83.3922 44.8367C82.7613 44.8367 82.2108 44.7253 81.7407 44.5027C81.283 44.2676 80.9057 43.9522 80.6088 43.5563V47.7128C80.6088 47.8489 80.5655 47.9602 80.4789 48.0468C80.3923 48.1334 80.2872 48.1767 80.1635 48.1767H78.2522ZM82.5572 42.61C83.0272 42.61 83.3983 42.511 83.6705 42.3131C83.9426 42.1028 84.1344 41.8307 84.2457 41.4967C84.3694 41.1627 84.4436 40.7977 84.4684 40.4019C84.4931 40.0184 84.4931 39.6349 84.4684 39.2514C84.4436 38.8556 84.3694 38.4906 84.2457 38.1566C84.1344 37.8226 83.9426 37.5567 83.6705 37.3588C83.3983 37.1485 83.0272 37.0433 82.5572 37.0433C82.0994 37.0433 81.7283 37.1485 81.4438 37.3588C81.1593 37.5691 80.9552 37.835 80.8315 38.1566C80.7078 38.4783 80.6336 38.8247 80.6088 39.1958C80.5964 39.4184 80.5903 39.6473 80.5903 39.8823C80.5903 40.1174 80.5964 40.3524 80.6088 40.5874C80.6212 40.9338 80.6954 41.2616 80.8315 41.5709C80.9799 41.8678 81.1902 42.1152 81.4624 42.3131C81.7469 42.511 82.1118 42.61 82.5572 42.61ZM94.4897 44.8367C93.463 44.8367 92.6032 44.6697 91.9105 44.3357C91.2178 43.9893 90.6858 43.5007 90.3147 42.8698C89.956 42.2389 89.758 41.5028 89.7209 40.6617C89.7086 40.4143 89.7024 40.1359 89.7024 39.8267C89.7024 39.505 89.7086 39.2267 89.7209 38.9917C89.758 38.1381 89.9683 37.4021 90.3518 36.7835C90.7353 36.1526 91.2734 35.6702 91.9662 35.3362C92.6589 34.9898 93.5001 34.8166 94.4897 34.8166C95.467 34.8166 96.302 34.9898 96.9947 35.3362C97.6875 35.6702 98.2256 36.1526 98.6091 36.7835C98.9926 37.4021 99.2029 38.1381 99.24 38.9917C99.2647 39.2267 99.2771 39.505 99.2771 39.8267C99.2771 40.1359 99.2647 40.4143 99.24 40.6617C99.2029 41.5028 98.9988 42.2389 98.6276 42.8698C98.2689 43.5007 97.7432 43.9893 97.0504 44.3357C96.3577 44.6697 95.5041 44.8367 94.4897 44.8367ZM94.4897 42.7956C95.0959 42.7956 95.5536 42.61 95.8629 42.2389C96.1721 41.8554 96.3391 41.2987 96.3639 40.5689C96.3762 40.3833 96.3824 40.1359 96.3824 39.8267C96.3824 39.5174 96.3762 39.27 96.3639 39.0844C96.3391 38.3669 96.1721 37.8165 95.8629 37.433C95.5536 37.0495 95.0959 36.8578 94.4897 36.8578C93.8836 36.8578 93.4197 37.0495 93.0981 37.433C92.7888 37.8165 92.6218 38.3669 92.5971 39.0844C92.5847 39.27 92.5785 39.5174 92.5785 39.8267C92.5785 40.1359 92.5847 40.3833 92.5971 40.5689C92.6218 41.2987 92.7888 41.8554 93.0981 42.2389C93.4197 42.61 93.8836 42.7956 94.4897 42.7956ZM106.545 44.6511C105.778 44.6511 105.122 44.5274 104.578 44.28C104.033 44.0202 103.619 43.6244 103.334 43.0924C103.062 42.5605 102.926 41.8925 102.926 41.0884V37.1918H101.479C101.343 37.1918 101.231 37.1485 101.145 37.0619C101.058 36.9753 101.015 36.8639 101.015 36.7279V35.4661C101.015 35.33 101.058 35.2187 101.145 35.1321C101.231 35.0455 101.343 35.0022 101.479 35.0022H102.926V31.9405C102.926 31.8044 102.969 31.6931 103.056 31.6065C103.155 31.5199 103.266 31.4766 103.39 31.4766H105.209C105.345 31.4766 105.456 31.5199 105.543 31.6065C105.629 31.6931 105.672 31.8044 105.672 31.9405V35.0022H107.992C108.116 35.0022 108.221 35.0455 108.307 35.1321C108.394 35.2187 108.437 35.33 108.437 35.4661V36.7279C108.437 36.8639 108.394 36.9753 108.307 37.0619C108.221 37.1485 108.116 37.1918 107.992 37.1918H105.672V40.8658C105.672 41.3358 105.753 41.707 105.914 41.9791C106.087 42.2389 106.384 42.3688 106.804 42.3688H108.159C108.283 42.3688 108.388 42.4121 108.474 42.4987C108.561 42.5853 108.604 42.6904 108.604 42.8141V44.1872C108.604 44.3233 108.561 44.4346 108.474 44.5212C108.388 44.6078 108.283 44.6511 108.159 44.6511H106.545ZM114.769 44.8367C114.002 44.8367 113.34 44.7501 112.784 44.5769C112.239 44.3913 111.794 44.1687 111.448 43.9089C111.114 43.6491 110.86 43.3893 110.687 43.1296C110.526 42.8574 110.44 42.6286 110.427 42.443C110.415 42.3069 110.458 42.1956 110.557 42.109C110.656 42.0224 110.755 41.9791 110.854 41.9791H112.654C112.691 41.9791 112.728 41.9853 112.765 41.9977C112.802 42.01 112.839 42.041 112.876 42.0904C113.037 42.2018 113.204 42.3317 113.378 42.4801C113.551 42.6162 113.749 42.7337 113.971 42.8327C114.206 42.9316 114.497 42.9811 114.843 42.9811C115.252 42.9811 115.598 42.9007 115.883 42.7399C116.167 42.5667 116.309 42.3255 116.309 42.0162C116.309 41.7936 116.241 41.608 116.105 41.4596C115.981 41.3111 115.74 41.175 115.382 41.0513C115.023 40.9276 114.491 40.7915 113.786 40.6431C113.118 40.4947 112.549 40.2967 112.079 40.0493C111.609 39.8019 111.256 39.4927 111.021 39.1215C110.786 38.7381 110.668 38.2804 110.668 37.7484C110.668 37.266 110.817 36.8021 111.114 36.3567C111.423 35.9114 111.874 35.5465 112.468 35.262C113.062 34.9651 113.804 34.8166 114.695 34.8166C115.375 34.8166 115.969 34.9032 116.476 35.0764C116.996 35.2372 117.429 35.4475 117.775 35.7073C118.122 35.9547 118.381 36.2145 118.555 36.4866C118.74 36.7464 118.839 36.9753 118.851 37.1732C118.864 37.2969 118.827 37.4021 118.74 37.4886C118.653 37.5752 118.555 37.6185 118.443 37.6185H116.792C116.73 37.6185 116.674 37.6123 116.625 37.6C116.575 37.5752 116.532 37.5443 116.495 37.5072C116.346 37.4082 116.192 37.2969 116.031 37.1732C115.883 37.0371 115.703 36.9196 115.493 36.8206C115.283 36.7217 115.01 36.6722 114.676 36.6722C114.268 36.6722 113.953 36.765 113.73 36.9505C113.52 37.1237 113.415 37.3464 113.415 37.6185C113.415 37.7917 113.47 37.9525 113.582 38.101C113.693 38.2494 113.922 38.3855 114.268 38.5092C114.615 38.6329 115.14 38.7628 115.845 38.8989C116.687 39.0473 117.355 39.27 117.849 39.5669C118.344 39.8638 118.697 40.2101 118.907 40.606C119.13 40.9895 119.241 41.4039 119.241 41.8492C119.241 42.4306 119.068 42.9502 118.722 43.4079C118.375 43.8532 117.868 44.2058 117.2 44.4656C116.544 44.713 115.734 44.8367 114.769 44.8367Z" fill="#BBC8D4"/>
<defs>
<clipPath id="clip0_32_30">
<rect width="58.6087" height="58.6087" fill="white"/>
</clipPath>
</defs>
</svg>
