<svg width="16" height="16" viewBox="0 0 16 16" fill="none" xmlns="http://www.w3.org/2000/svg">
<circle cx="8" cy="8" r="8" fill="#4FFD60"/>
<path d="M8 1.5C4.41013 1.5 1.5 4.41016 1.5 8C1.5 11.5898 4.41013 14.5 8 14.5C11.5898 14.5 14.5 11.5898 14.5 8C14.5 4.41016 11.5898 1.5 8 1.5ZM7.32659 13.5312C6.09334 13.3835 4.95228 12.8315 4.06038 11.9396C3.00806 10.8873 2.42856 9.48819 2.42856 8C2.42856 6.66031 2.89844 5.393 3.75984 4.38566C3.78203 4.65181 3.83681 4.93716 3.82278 5.14113C3.77153 5.88472 3.69816 6.35009 4.13341 6.97744C4.30297 7.22178 4.34463 7.57206 4.42716 7.85488C4.50788 8.13156 4.83034 8.27669 5.05275 8.44716C5.50147 8.79119 5.93075 9.19106 6.40656 9.49384C6.72059 9.69369 6.91675 9.79309 6.82478 10.1763C6.75081 10.4845 6.73016 10.6743 6.57072 10.9489C6.52206 11.0327 6.75437 11.5713 6.83169 11.6487C7.066 11.8829 7.2985 12.0979 7.55391 12.3088C7.94988 12.636 7.51544 13.0611 7.32659 13.5312ZM11.9396 11.9396C11.1386 12.7406 10.1365 13.2673 9.04722 13.4734C9.20159 13.0916 9.47647 12.7524 9.73144 12.5558C9.95322 12.3847 10.231 12.0555 10.3468 11.7948C10.4626 11.5344 10.6159 11.3087 10.7711 11.0693C10.9919 10.7287 10.2268 10.215 9.97884 10.1074C9.42091 9.86516 9.00091 9.53831 8.50506 9.18941C8.15178 8.94084 7.43453 9.31922 7.03569 9.14513C6.48941 8.90659 6.03934 8.49212 5.5645 8.13453C5.0745 7.7655 5.09819 7.33528 5.09819 6.79087C5.482 6.80503 6.028 6.68466 6.28281 6.99331C6.36322 7.09072 6.63969 7.52588 6.82475 7.37125C6.97594 7.24491 6.71272 6.73847 6.66187 6.61941C6.50547 6.25331 7.01825 6.11053 7.28072 5.86228C7.62322 5.53841 8.35791 5.03047 8.29984 4.79831C8.24178 4.56616 7.56472 3.90841 7.16706 4.01103C7.10747 4.02641 6.58278 4.57656 6.48141 4.66288C6.48409 4.48331 6.48678 4.30378 6.48953 4.12422C6.49125 4.01084 6.27803 3.89447 6.28794 3.82134C6.31294 3.63653 6.82737 3.30113 6.95534 3.15394C6.86569 3.09791 6.55975 2.83513 6.46716 2.87369C6.24297 2.96713 5.98978 3.0315 5.76559 3.12491C5.76559 3.04716 5.75616 2.97412 5.74491 2.902C6.19638 2.70228 6.67261 2.56405 7.16084 2.491L7.60097 2.66788L7.91172 3.03666L8.22184 3.35644L8.49294 3.44378L8.92353 3.03769L8.8125 2.74778V2.48719C9.66406 2.61087 10.4683 2.92856 11.1726 3.41844C11.0466 3.42972 10.9081 3.44825 10.7519 3.46813C10.6873 3.43 10.6046 3.41269 10.5342 3.38616C10.7383 3.82497 10.9512 4.25772 11.1675 4.69072C11.3985 5.15325 11.911 5.64938 12.001 6.13763C12.1071 6.71313 12.0335 7.23587 12.0915 7.91297C12.1474 8.565 12.8266 9.30584 12.8266 9.30584C12.8266 9.30584 13.1403 9.41269 13.4011 9.37547C13.158 10.3374 12.6595 11.2197 11.9396 11.9396Z" fill="black"/>
</svg>
