<svg width="40" height="40" viewBox="0 0 40 40" fill="none" xmlns="http://www.w3.org/2000/svg">
<path d="M8.68122 21.6667H27.2979L19.1646 29.8C18.5146 30.45 18.5146 31.5167 19.1646 32.1667C19.8146 32.8167 20.8646 32.8167 21.5146 32.1667L32.4979 21.1834C33.1479 20.5334 33.1479 19.4834 32.4979 18.8334L21.5312 7.83336C21.2198 7.52127 20.7971 7.34589 20.3562 7.34589C19.9154 7.34589 19.4926 7.52127 19.1812 7.83336C18.5312 8.48336 18.5312 9.53336 19.1812 10.1834L27.2979 18.3334H8.68122C7.76456 18.3334 7.01456 19.0834 7.01456 20C7.01456 20.9167 7.76456 21.6667 8.68122 21.6667Z" fill="white"/>
</svg>
