<svg width="40" height="40" viewBox="0 0 40 40" fill="none" xmlns="http://www.w3.org/2000/svg">
<path fill-rule="evenodd" clip-rule="evenodd" d="M7.45012 34.1731C4.88345 34.1731 3.28345 31.3898 4.56679 29.1731L17.1168 7.48977C18.4001 5.2731 21.6001 5.2731 22.8835 7.48977L35.4335 29.1731C36.7168 31.3898 35.1168 34.1731 32.5501 34.1731H7.45012ZM32.5504 30.8399L20.0004 9.15662L7.45036 30.8399H32.5504ZM18.3333 17.5066V20.84C18.3333 21.7566 19.0833 22.5066 20 22.5066C20.9167 22.5066 21.6667 21.7566 21.6667 20.84V17.5066C21.6667 16.59 20.9167 15.84 20 15.84C19.0833 15.84 18.3333 16.59 18.3333 17.5066ZM21.6667 29.1733V25.84H18.3333V29.1733H21.6667Z" fill="#DC3545" fill-opacity="0.8"/>
</svg>
