<svg width="40" height="40" viewBox="0 0 40 40" fill="none" xmlns="http://www.w3.org/2000/svg">
<path fill-rule="evenodd" clip-rule="evenodd" d="M19.9999 3.33337C10.7999 3.33337 3.33325 10.8 3.33325 20C3.33325 29.2 10.7999 36.6667 19.9999 36.6667C29.1999 36.6667 36.6666 29.2 36.6666 20C36.6666 10.8 29.1999 3.33337 19.9999 3.33337ZM20 33.3335C12.65 33.3335 6.66667 27.3501 6.66667 20.0001C6.66667 12.6501 12.65 6.66679 20 6.66679C27.35 6.66679 33.3333 12.6501 33.3333 20.0001C33.3333 27.3501 27.35 33.3335 20 33.3335ZM16.6666 23.6169L26.4666 13.8169C27.1166 13.1669 28.1833 13.1669 28.8333 13.8169C29.4833 14.4669 29.4833 15.5169 28.8333 16.1669L17.85 27.1502C17.2 27.8002 16.15 27.8002 15.5 27.1502L11.1833 22.8336C10.5333 22.1836 10.5333 21.1336 11.1833 20.4836C11.4947 20.1715 11.9174 19.9961 12.3583 19.9961C12.7992 19.9961 13.2219 20.1715 13.5333 20.4836L16.6666 23.6169Z" fill="#198754" fill-opacity="0.8"/>
</svg>
