<svg width="64" height="64" viewBox="0 0 64 64" fill="none" xmlns="http://www.w3.org/2000/svg">
<g clip-path="url(#clip0_330_208)">
<path d="M32 0C14.355 0 0 14.356 0 32.001C0 49.645 14.355 64 32 64C49.645 64 64 49.645 64 32.001C64 14.356 49.645 0 32 0ZM32 59.362C16.913 59.362 4.638 47.087 4.638 32.001C4.638 16.913 16.913 4.638 32 4.638C47.087 4.638 59.362 16.913 59.362 32.001C59.362 47.088 47.087 59.362 32 59.362Z" fill="#184E77"/>
<path d="M23.8409 28.874C25.8898 28.874 27.5509 27.213 27.5509 25.164C27.5509 23.115 25.8898 21.454 23.8409 21.454C21.7919 21.454 20.1309 23.115 20.1309 25.164C20.1309 27.213 21.7919 28.874 23.8409 28.874Z" fill="#184E77"/>
<path d="M40.1578 28.874C42.2073 28.874 43.8688 27.2126 43.8688 25.163C43.8688 23.1135 42.2073 21.452 40.1578 21.452C38.1083 21.452 36.4468 23.1135 36.4468 25.163C36.4468 27.2126 38.1083 28.874 40.1578 28.874Z" fill="#184E77"/>
<path d="M24.1279 37.761C22.8659 37.961 22.0079 39.143 22.2029 40.406C22.3979 41.669 23.5849 42.526 24.8449 42.344C25.2599 42.282 35.0129 40.913 37.2629 49.74C37.5299 50.788 38.4739 51.486 39.5079 51.486C39.6979 51.486 39.8909 51.462 40.0829 51.413C41.3239 51.096 42.0729 49.833 41.7569 48.592C39.1159 38.236 29.0689 36.979 24.1279 37.761Z" fill="#184E77"/>
</g>
<defs>
<clipPath id="clip0_330_208">
<rect width="64" height="64" fill="white"/>
</clipPath>
</defs>
</svg>
