<svg width="80" height="80" viewBox="0 0 80 80" fill="none" xmlns="http://www.w3.org/2000/svg">
<path d="M36.1958 11.7082C37.3932 8.02296 42.6068 8.02296 43.8042 11.7082L48.0825 24.8754C48.618 26.5235 50.1538 27.6393 51.8867 27.6393H65.7315C69.6064 27.6393 71.2175 32.5978 68.0827 34.8754L56.882 43.0132C55.48 44.0317 54.8934 45.8372 55.4289 47.4853L59.7072 60.6525C60.9046 64.3377 56.6867 67.4022 53.5518 65.1246L42.3511 56.9868C40.9492 55.9683 39.0508 55.9683 37.6489 56.9868L26.4482 65.1246C23.3133 67.4022 19.0954 64.3377 20.2928 60.6525L24.5711 47.4853C25.1066 45.8372 24.52 44.0317 23.118 43.0132L11.9173 34.8754C8.78248 32.5978 10.3936 27.6393 14.2685 27.6393H28.1133C29.8462 27.6393 31.382 26.5235 31.9175 24.8754L36.1958 11.7082Z" fill="#FFE234"/>
<path d="M57.452 17.9793C56.6617 18.7313 55.4099 17.8547 55.8462 16.8549L59.4987 8.48497C59.7514 7.90585 60.4712 7.70337 60.9888 8.06579L63.9522 10.1408C64.4698 10.5032 64.5257 11.2488 64.0679 11.6844L57.452 17.9793Z" fill="#FFE234"/>
<path d="M24.3592 17.8549C24.7955 18.8547 23.5437 19.7313 22.7534 18.9793L16.1375 12.6844C15.6797 12.2488 15.7356 11.5032 16.2532 11.1408L19.2166 9.06581C19.7342 8.70339 20.454 8.90588 20.7067 9.48499L24.3592 17.8549Z" fill="#FFE234"/>
<path d="M16.4939 48.2117C17.4028 47.6084 18.4834 48.6891 17.8801 49.5979L12.8296 57.2064C12.4802 57.7329 11.7362 57.8073 11.2894 57.3605L8.73134 54.8025C8.28455 54.3557 8.35897 53.6116 8.88541 53.2622L16.4939 48.2117Z" fill="#FFE234"/>
<path d="M62.2117 49.5979C61.6084 48.689 62.6891 47.6084 63.5979 48.2117L71.2064 53.2622C71.7329 53.6116 71.8073 54.3556 71.3605 54.8024L68.8025 57.3605C68.3557 57.8072 67.6116 57.7328 67.2622 57.2064L62.2117 49.5979Z" fill="#FFE234"/>
</svg>
